<svg xmlns="http://www.w3.org/2000/svg" viewBox="0 0 600 800" width="600" height="800" role="img">
<defs>
<linearGradient id="f10" x1="0" y1="0" x2="0.35" y2="1">
<stop offset="0" stop-color="#EEDCC8"/><stop offset="1" stop-color="#D9B896"/></linearGradient>
<radialGradient id="s10" cx="0.72" cy="0.22" r="0.62">
<stop offset="0" stop-color="#F3DFBC" stop-opacity="0.85"/>
<stop offset="1" stop-color="#F3DFBC" stop-opacity="0"/></radialGradient>
</defs>
<rect width="600" height="800" fill="url(#f10)"/>
<rect width="600" height="800" fill="url(#s10)"/>
<path d="M 84.0 720.0 L 84.0 336.0 A 216.0 216.0 0 0 1 516.0 336.0 L 516.0 720.0" fill="none" stroke="#B78E4E" stroke-width="1.2" opacity="0.50"/>
<path d="M 132.0 704.0 L 132.0 336.0 A 168.0 168.0 0 0 1 468.0 336.0 L 468.0 704.0" fill="none" stroke="#B78E4E" stroke-width="1.2" opacity="0.41"/>
<path d="M 180.0 688.0 L 180.0 336.0 A 120.0 120.0 0 0 1 420.0 336.0 L 420.0 688.0" fill="none" stroke="#B78E4E" stroke-width="1.2" opacity="0.32"/>
<path d="M 228.0 672.0 L 228.0 336.0 A 72.0 72.0 0 0 1 372.0 336.0 L 372.0 672.0" fill="none" stroke="#B78E4E" stroke-width="1.2" opacity="0.23"/>
</svg>